<svg xmlns="http://www.w3.org/2000/svg" width="48" height="48" viewBox="0 0 48 48"><defs><style>.a{fill:rgba(0,0,0,0);}.b{fill:#fbfbfb;}</style></defs><g transform="translate(210 -81)"><path class="a" d="M0,0H48V48H0Z" transform="translate(-210 81)"/><path class="b" d="M22,44A22,22,0,0,1,6.446,6.446,22,22,0,1,1,37.554,37.554,21.855,21.855,0,0,1,22,44ZM12.674,23.871c0,5.01,4.368,9.086,9.736,9.086s9.736-4.076,9.736-9.086-4.368-9.087-9.736-9.087V10.24l-6.085,5.679L22.41,21.6V17.055a7.079,7.079,0,0,1,7.3,6.816,7.079,7.079,0,0,1-7.3,6.815,7.079,7.079,0,0,1-7.3-6.815Z" transform="translate(-208 83)"/></g></svg>