<svg xmlns="http://www.w3.org/2000/svg" width="40" height="40" viewBox="0 0 40 40"><defs><style>.a{fill:#fff;}.b{fill:none;}</style></defs><path class="a" d="M17.383,2A15.383,15.383,0,1,0,32.765,17.383,15.388,15.388,0,0,0,17.383,2Zm0,4.615a4.615,4.615,0,1,1-4.615,4.615A4.609,4.609,0,0,1,17.383,6.615Zm0,21.843A11.076,11.076,0,0,1,8.153,23.5c.046-3.061,6.153-4.738,9.23-4.738,3.061,0,9.183,1.677,9.23,4.738A11.076,11.076,0,0,1,17.383,28.458Z" transform="translate(2.617 2.617)"/><path class="b" d="M0,0H40V40H0Z"/></svg>