<svg xmlns="http://www.w3.org/2000/svg" width="48" height="48" viewBox="0 0 48 48"><defs><style>.a{fill:rgba(0,0,0,0);}.b{fill:#fbfbfb;}</style></defs><g transform="translate(-802 -789)"><path class="a" d="M0,0H48V48H0Z" transform="translate(802 789)"/><path class="b" d="M22,44A22,22,0,0,1,6.446,6.446,22,22,0,1,1,37.554,37.554,21.855,21.855,0,0,1,22,44Zm.2-19.5h0l6.9,6.9,2.3-2.3-6.9-6.9,6.9-6.9L29.1,13l-6.9,6.9L15.3,13,13,15.3l6.9,6.9L13,29.1l2.3,2.3,6.9-6.9Z" transform="translate(804 791)"/></g></svg>